<svg viewBox="0 0 800 500" xmlns="http://www.w3.org/2000/svg">
  <!-- Background -->
  <rect width="800" height="500" fill="#f8f9fa" rx="10" ry="10" />

  <!-- MCP Clients -->
  <rect x="50" y="80" width="150" height="100" rx="5" ry="5" fill="#d1e7dd" stroke="#0f5132" stroke-width="2" />
  <text x="125" y="110" font-family="Arial" font-size="16" text-anchor="middle" font-weight="bold">MCP Clients</text>
  <text x="125" y="135" font-family="Arial" font-size="12" text-anchor="middle">Claude Desktop</text>
  <text x="125" y="155" font-family="Arial" font-size="12" text-anchor="middle">Cursor</text>
  <text x="125" y="175" font-family="Arial" font-size="12" text-anchor="middle">Other MCP Clients</text>

  <!-- MCP Bridge Server -->
  <rect x="300" y="50" width="200" height="300" rx="5" ry="5" fill="#cfe2ff" stroke="#084298" stroke-width="2" />
  <text x="400" y="80" font-family="Arial" font-size="16" text-anchor="middle" font-weight="bold">Volatility3 MCP Server</text>
  <text x="400" y="100" font-family="Arial" font-size="12" text-anchor="middle" font-style="italic">(Python Middleware)</text>

  <!-- MCP Tools -->
  <rect x="325" y="120" width="150" height="150" rx="5" ry="5" fill="#e2e3e5" stroke="#41464b" stroke-width="1" />
  <text x="400" y="140" font-family="Arial" font-size="14" text-anchor="middle" font-weight="bold">MCP Tools</text>
  <text x="400" y="165" font-family="Arial" font-size="11" text-anchor="middle">initialize_memory_file</text>
  <text x="400" y="185" font-family="Arial" font-size="11" text-anchor="middle">get_processes</text>
  <text x="400" y="205" font-family="Arial" font-size="11" text-anchor="middle">get_network_connections</text>
  <text x="400" y="225" font-family="Arial" font-size="11" text-anchor="middle">scan_with_yara</text>
  <text x="400" y="245" font-family="Arial" font-size="11" text-anchor="middle">run_plugin</text>
  <text x="400" y="265" font-family="Arial" font-size="11" text-anchor="middle">...</text>

  <!-- Volatility3 Framework -->
  <rect x="600" y="150" width="150" height="100" rx="5" ry="5" fill="#f8d7da" stroke="#842029" stroke-width="2" />
  <text x="675" y="180" font-family="Arial" font-size="16" text-anchor="middle" font-weight="bold">Volatility3</text>
  <text x="675" y="200" font-family="Arial" font-size="12" text-anchor="middle">Memory Forensics</text>
  <text x="675" y="220" font-family="Arial" font-size="12" text-anchor="middle">Framework</text>

  <!-- Memory Dump -->
  <rect x="600" y="300" width="150" height="80" rx="5" ry="5" fill="#fff3cd" stroke="#664d03" stroke-width="2" />
  <text x="675" y="340" font-family="Arial" font-size="16" text-anchor="middle" font-weight="bold">Memory Dump</text>
  <text x="675" y="360" font-family="Arial" font-size="12" text-anchor="middle">(.raw, .dmp files)</text>

  <!-- Input/Output Validator -->
  <rect x="350" y="300" width="100" height="40" rx="5" ry="5" fill="#e2e3e5" stroke="#41464b" stroke-width="1" />
  <text x="400" y="325" font-family="Arial" font-size="12" text-anchor="middle">Input Validator</text>

  <!-- Connections -->
  <!-- MCP Clients to MCP Server -->
  <line x1="200" y1="130" x2="300" y2="130" stroke="#084298" stroke-width="2" />
  <polygon points="295,125 300,130 295,135" fill="#084298" />
  <text x="250" y="120" font-family="Arial" font-size="10" text-anchor="middle">MCP Requests</text>

  <line x1="300" y1="150" x2="200" y2="150" stroke="#084298" stroke-width="2" />
  <polygon points="205,145 200,150 205,155" fill="#084298" />
  <text x="250" y="165" font-family="Arial" font-size="10" text-anchor="middle">JSON Responses</text>

  <!-- MCP Server to Volatility3 -->
  <line x1="500" y1="180" x2="600" y2="180" stroke="#842029" stroke-width="2" />
  <polygon points="595,175 600,180 595,185" fill="#842029" />
  <text x="550" y="170" font-family="Arial" font-size="10" text-anchor="middle">Plugin Commands</text>

  <line x1="600" y1="200" x2="500" y2="200" stroke="#842029" stroke-width="2" />
  <polygon points="505,195 500,200 505,205" fill="#842029" />
  <text x="550" y="215" font-family="Arial" font-size="10" text-anchor="middle">Analysis Results</text>

  <!-- Volatility3 to Memory Dump -->
  <line x1="675" y1="250" x2="675" y2="300" stroke="#664d03" stroke-width="2" />
  <polygon points="670,295 675,300 680,295" fill="#664d03" />
  <text x="700" y="275" font-family="Arial" font-size="10" text-anchor="middle">Analyze</text>

  <!-- MCP Server to Input Validator -->
  <line x1="400" y1="270" x2="400" y2="300" stroke="#41464b" stroke-width="1.5" />
  <polygon points="395,295 400,300 405,295" fill="#41464b" />

  <!-- Data Flow Arrows -->
  <path d="M 125,200 C 125,240 250,380 400,380 C 550,380 675,380 675,380" stroke="#084298" stroke-width="1.5" stroke-dasharray="5,5" fill="none" />
  <polygon points="670,375 675,380 670,385" fill="#084298" />
  <text x="400" y="400" font-family="Arial" font-size="14" text-anchor="middle" font-weight="bold">Data Flow</text>

  <!-- Title -->
  <text x="400" y="30" font-family="Arial" font-size="20" text-anchor="middle" font-weight="bold">Volatility3 MCP Bridge Architecture</text>
</svg>
